<?xml version="1.0" encoding="UTF-8" standalone="no"?>
<!-- Created with Inkscape (http://www.inkscape.org/) -->

<svg
   width="80.65995mm"
   height="76.211182mm"
   viewBox="0 0 80.65995 76.211182"
   version="1.1"
   id="svg1"
   xml:space="preserve"
   xmlns="http://www.w3.org/2000/svg"
   xmlns:svg="http://www.w3.org/2000/svg"><defs
     id="defs1" /><g
     id="layer1"
     transform="translate(-76.112578,-197.88307)"><path
       style="fill:#000000;fill-opacity:1"
       d="m 96.471788,273.79919 c 0.10684,-0.20373 0.94779,-1.60089 1.86879,-3.10479 0.921,-1.50391 2.611092,-4.31641 3.755762,-6.25 4.67066,-7.88978 8.12665,-13.27935 12.47405,-19.45313 2.89543,-4.11182 3.65879,-5.14001 10.01997,-13.49621 2.70681,-3.55572 5.31172,-7.00104 5.7887,-7.65625 2.43784,-3.34879 3.74214,-5.18798 3.74214,-5.27676 0,-0.0543 -0.36914,-0.053 -0.82031,0.003 -12.16406,1.50535 -21.63755,1.38124 -29.02343,-0.38024 -2.7826,-0.66362 -7.428042,-2.23261 -9.921872,-3.35108 -3.771082,-1.6913 -6.133302,-2.96692 -8.906252,-4.80944 -1.910625,-1.26953 -4.361885,-3.2485 -5.445025,-4.3959 l -0.60127,-0.63695 0.35506,0.625 c 2.22836,3.92248 5.834725,7.21079 13.471097,12.28305 1.82264,1.21064 3.34101,2.22716 3.37417,2.25893 0.26445,0.25338 -6.091362,-2.00989 -8.810282,-3.1373 -1.71862,-0.71262 -3.548395,-1.62728 -4.342875,-2.17089 -0.95788,-0.65541 -0.87601,-0.47397 0.28493,0.63142 2.426045,2.30998 6.285825,4.31029 11.557947,5.98986 4.26158,1.35764 10.734932,2.60405 15.128282,2.91287 0.83178,0.0585 1.51233,0.15492 1.51233,0.21432 0,0.58803 -11.57163,0.78199 -15.689132,0.26298 -2.05311,-0.25879 -6.424372,-1.05986 -7.010262,-1.28469 -0.14814,-0.0569 -0.26935,-0.0615 -0.26935,-0.0103 0,0.15413 2.38752,1.30524 3.548482,1.71085 5.12138,1.78931 13.981342,2.06214 21.363322,0.65788 0.6071,-0.11549 1.12375,-0.19114 1.14812,-0.16811 0.077,0.0727 -2.64472,1.20332 -4.02868,1.67351 -3.5757,1.21483 -7.52791,1.91515 -11.851082,2.09998 -1.49866,0.0641 -2.45746,0.16286 -2.32112,0.23916 0.73917,0.41366 2.94715,0.75613 4.875342,0.75619 4.508,1.3e-4 8.43812,-1.10557 15.74218,-4.4289 0.49414,-0.22483 0.89843,-0.38014 0.89843,-0.34513 0,0.12863 -2.78209,2.09118 -4.375,3.08622 -3.05716,1.90972 -7.81408,4.03369 -9.03399,4.03369 -0.3884,0 -0.58092,0.24695 -0.28195,0.36168 1.61968,0.62153 3.95214,-0.0204 7.51907,-2.06929 2.15982,-1.24065 3.86806,-2.42249 7.8125,-5.40507 1.71875,-1.29963 3.21823,-2.41808 3.33217,-2.48545 0.28089,-0.16606 -2.46631,3.49485 -4.21264,5.61375 -1.10656,1.34264 -4.8894,6.16065 -6.13396,7.8125 -0.84172,1.11719 -1.58501,2.05164 -1.65175,2.07657 -0.1297,0.0484 -0.94659,-1.16426 -1.2725,-1.88905 -0.19296,-0.42913 -0.16413,-0.47051 1.51161,-2.16928 1.73365,-1.75749 1.79167,-1.86284 0.53644,-0.97412 -1.88582,1.33519 -3.81083,2.01137 -5.70312,2.00328 -1.8768,-0.008 -2.9567,-0.42123 -4.1069,-1.57143 -0.8307,-0.83069 -0.84076,-0.83534 -1.80796,-0.83534 -2.567512,0 -5.200452,-1.41226 -6.507012,-3.49023 -0.30078,-0.47837 -0.63114,-0.87314 -0.73412,-0.87727 -0.10299,-0.004 -0.75088,-0.18556 -1.439772,-0.40317 -2.87246,-0.90742 -5.47982,-3.44263 -6.26195,-6.08871 -0.14821,-0.50142 -0.34028,-0.71768 -0.971415,-1.09375 -1.18944,-0.70874 -2.76782,-2.37598 -3.55621,-3.75643 -0.85763,-1.50168 -1.2122,-2.5256 -1.44524,-4.17348 -0.16366,-1.15722 -0.24829,-1.36011 -0.95725,-2.29477 -0.96908,-1.27762 -1.71878,-2.83865 -2.14328,-4.46282 -0.42103,-1.61087 -0.46143,-4.63711 -0.0834,-6.25 0.33072,-1.41117 0.71454,-2.57841 0.84743,-2.57708 0.0576,5.8e-4 0.3724,0.49273 0.69968,1.09367 2.09603,3.84869 6.36263,7.93081 11.473255,10.97715 3.622702,2.15942 6.782472,3.65455 11.666664,5.52039 l 2.64122,1.00899 0.71815,-0.26395 c 0.39499,-0.14517 0.77509,-0.31277 0.84467,-0.37244 0.0696,-0.0597 -0.28199,-0.27071 -0.78125,-0.46897 -0.49927,-0.19826 -1.32964,-0.57484 -1.84526,-0.83684 l -0.9375,-0.47637 3.04687,-0.19624 c 3.23997,-0.20866 11.03964,-0.83552 15.31249,-1.23065 7.47383,-0.69114 18.04554,-2.01547 24.92188,-3.12199 0.77344,-0.12446 1.49164,-0.22657 1.59601,-0.22692 0.19069,-6.3e-4 0.0944,0.2794 -0.69845,2.03063 -0.17508,0.38672 -0.78416,1.74531 -1.35351,3.01909 -4.36083,9.75627 -7.76534,15.60337 -15.34587,26.35591 -3.87097,5.49074 -5.61132,8.01121 -7.98369,11.5625 -2.04423,3.06007 -5.69959,8.84698 -6.20016,9.81567 -0.14746,0.28535 -0.52741,0.67146 -0.84434,0.85804 -0.72611,0.42746 -9.46456,5.91663 -14.01373,8.80291 -1.890632,1.19953 -3.532412,2.23836 -3.648402,2.30852 -0.17433,0.10545 -0.17722,0.0633 -0.0166,-0.24285 z M 130.6904,233.35065 c 0.3331,0 0.77455,-0.71243 0.77455,-1.25 0,-1.07042 -0.99781,-1.67356 -1.89845,-1.14755 -0.63409,0.37032 -0.85873,0.9954 -0.59048,1.64302 0.20302,0.49012 0.98296,0.96128 1.3689,0.82695 0.11445,-0.0398 0.26992,-0.0724 0.34548,-0.0724 z m 2.86286,-4.38634 c 0.90199,-0.70951 0.32629,-2.17616 -0.8542,-2.17616 -1.10742,0 -1.64053,1.32652 -0.85058,2.11647 0.47444,0.47445 1.14754,0.49801 1.70478,0.0597 z m 2.39381,-3.92215 c 0.73834,-0.69363 0.22286,-2.00401 -0.78834,-2.00401 -1.08945,0 -1.61718,1.36301 -0.78208,2.01991 0.53091,0.41761 1.11527,0.41169 1.57042,-0.0159 z m 1.26012,-3.99612 c 0.0854,-0.25658 -0.40414,-0.43974 -0.61412,-0.22976 -0.0899,0.0899 -0.11374,0.24372 -0.0531,0.3419 0.13806,0.22338 0.58021,0.14906 0.66718,-0.11214 z m 2.25327,-2.32899 c 0.16988,-0.15373 0.28574,-0.47357 0.28574,-0.78879 0,-0.44974 -0.0767,-0.56246 -0.50562,-0.7428 -0.75448,-0.31723 -1.36202,0.0563 -1.36698,0.84038 -0.005,0.82089 0.97283,1.24691 1.58686,0.69121 z m -22.13613,-1.32724 c 0.94531,-0.099 1.80664,-0.24835 1.91406,-0.33185 0.10742,-0.0835 0.19531,-0.31039 0.19531,-0.50419 0,-0.67674 -0.29124,-0.70806 -2.03285,-0.21858 -1.55183,0.43614 -4.49103,1.00054 -5.85777,1.12483 -0.34375,0.0313 0.42968,0.0688 1.71875,0.0833 1.28906,0.0146 3.11719,-0.0545 4.0625,-0.15355 z m 5.20333,-0.68504 c 0.86532,-0.25698 1.12479,-0.55683 1.12479,-1.29982 0,-1.10175 -0.40757,-1.36489 -1.58483,-1.02321 -0.46037,0.13361 -0.92493,0.35643 -1.03235,0.49516 -0.3067,0.39607 -0.23955,1.33609 0.12327,1.72553 0.37934,0.40717 0.35,0.40498 1.36912,0.10234 z m 4.92361,-0.99923 c 0.52798,-0.20074 0.73243,-0.61534 0.73243,-1.48525 0,-0.50686 -0.0912,-0.80455 -0.31488,-1.02827 -0.34843,-0.34844 -0.58266,-0.32586 -1.9898,0.1918 l -0.82032,0.30178 v 0.91493 c 0,1.47057 0.64616,1.769 2.39257,1.10501 z m -10.36132,55.04261 c -2.82613,-0.19904 -7.31029,-1.06757 -9.1394,-1.7702 l -0.46752,-0.17959 1.09252,-0.69942 c 0.60089,-0.38468 1.36214,-0.84144 1.69168,-1.01502 l 0.59915,-0.31561 1.35397,0.30988 c 1.82352,0.41734 2.73906,0.55311 2.6374,0.39109 -0.0463,-0.0738 -0.40943,-0.6183 -0.80687,-1.2099 l -0.72263,-1.07564 0.88274,-0.53176 c 0.48551,-0.29247 0.9381,-0.54671 1.00574,-0.56499 0.0677,-0.0183 0.46986,0.49413 0.89382,1.13866 0.42395,0.64453 1.13552,1.54276 1.58126,1.99606 0.70299,0.71492 0.85243,0.80172 1.12713,0.65471 0.41561,-0.22243 1.62922,-1.87803 2.17218,-2.96327 1.20442,-2.40735 2.1223,-6.4323 2.36957,-10.39063 l 0.16593,-2.65625 0.5805,-0.625 c 0.31927,-0.34375 0.7978,-0.88336 1.0634,-1.19913 0.45672,-0.543 0.48801,-0.55571 0.57692,-0.23438 0.16142,0.58336 -0.0521,5.90994 -0.30458,7.5986 -0.54332,3.63373 -1.47272,6.89581 -2.47622,8.69126 -0.21226,0.37979 -0.34671,0.69053 -0.29877,0.69053 0.2758,0 2.01563,-1.15037 3.31185,-2.18977 2.03004,-1.62783 3.54298,-3.2253 5.64148,-5.95667 0.20674,-0.26909 0.39818,-0.29963 1.62355,-0.259 l 1.38918,0.0461 -0.92043,1.35515 c -1.14439,1.6849 -3.51437,4.37181 -4.97368,5.63881 -0.60665,0.52669 -1.1733,1.02163 -1.25924,1.09986 -0.28065,0.25546 0.81714,-0.0541 2.46466,-0.69497 4.02099,-1.56418 7.60695,-3.9551 10.38451,-6.92382 l 1.24848,-1.3344 h 1.83691 1.8369 l -0.44328,0.58593 c -1.38617,1.83227 -4.01912,4.41661 -6.00681,5.89589 -4.81348,3.58232 -10.41181,5.81378 -16.24325,6.47445 -1.69483,0.19202 -4.36112,0.30049 -5.46875,0.22248 z m -19.168292,-6.99497 c -5.3694,-4.24579 -9.106922,-9.75602 -11.215372,-16.53485 -1.21945,-3.92062 -1.67388,-7.9618 -1.36038,-12.09767 0.19849,-2.61867 0.48614,-4.63725 0.87973,-6.1736 0.13163,-0.51379 0.23932,-0.96507 0.23932,-1.00287 0,-0.0378 0.56809,0.36459 1.26242,0.89418 1.04288,0.79543 1.24623,1.02017 1.16929,1.29227 -0.0512,0.18116 -0.23057,1.11551 -0.39854,2.07634 -0.6561,3.75304 -0.56431,7.90266 0.25686,11.61242 0.45308,2.04686 1.10777,4.21894 1.27146,4.21834 0.0607,-2.2e-4 0.53226,-0.25533 1.04789,-0.56691 1.15325,-0.69688 4.529152,-2.40143 4.756082,-2.40143 0.21348,0 0.22623,0.0998 -0.21389,-1.67343 -0.20882,-0.84133 -0.46403,-2.32071 -0.56712,-3.28751 l -0.18744,-1.75781 h -1.60796 -1.607972 l -0.10939,0.49804 c -0.0602,0.27393 -0.23262,0.78369 -0.38324,1.13282 l -0.27386,0.63476 -0.10987,-0.9375 c -0.0604,-0.51562 -0.12705,-1.00515 -0.14804,-1.08785 -0.021,-0.0827 -0.36717,-0.13011 -0.76929,-0.10538 l -0.73114,0.045 v -1.10555 -1.10555 h 0.75662 0.75661 l 0.14182,-1.05469 0.14183,-1.05469 0.40345,1.09375 0.40346,1.09375 1.566762,0.0443 1.56676,0.0443 0.0809,-1.41828 c 0.0445,-0.78006 0.11907,-1.45649 0.16576,-1.50319 0.0467,-0.0467 0.55052,0.18489 1.11961,0.51463 l 1.03471,0.59952 -0.0457,0.85589 -0.0457,0.85589 0.78125,0.11568 c 0.42969,0.0636 1.27344,0.28408 1.875,0.48991 l 1.093752,0.37424 -1.093752,0.32278 c -0.60156,0.17752 -1.41015,0.38234 -1.79687,0.45516 -0.67406,0.12691 -0.70516,0.15693 -0.75234,0.72634 -0.066,0.79586 0.58688,4.71813 0.84465,5.07474 0.0206,0.0285 1.0454,-0.33349 2.277282,-0.80451 2.31393,-0.88474 3.93348,-1.40235 6.22415,-1.98925 1.33019,-0.3408 3.26798,-0.77374 3.46319,-0.77374 0.0572,0 -0.21352,0.58096 -0.60151,1.29102 l -0.70544,1.29102 -1.66406,0.4468 c -3.04891,0.81863 -8.304672,2.62039 -8.304672,2.84697 0,0.0393 0.36582,0.8954 0.81293,1.90249 0.967322,2.17881 1.746472,3.56847 2.969812,5.29687 0.49762,0.70306 0.90476,1.33438 0.90476,1.40293 0,0.0686 -0.18396,0.60606 -0.4088,1.19446 l -0.4088,1.06982 -0.46387,-0.4415 c -1.58633,-1.50987 -4.305852,-6.0521 -5.292662,-8.83995 -0.11407,-0.32226 -0.27815,-0.58593 -0.36462,-0.58593 -0.31635,0 -5.441662,2.88247 -5.528722,3.10935 -0.17818,0.46433 2.217312,4.47834 3.879122,6.50002 1.0323,1.25587 3.64677,3.82752 4.6821,4.60543 0.38672,0.29057 0.765982,0.58216 0.842802,0.64799 0.1747,0.14969 -0.835282,2.63721 -1.070752,2.63721 -0.0941,0 -0.74222,-0.45167 -1.44035,-1.00372 z M 146.9337,252.96002 c -0.47265,-0.2969 -0.94726,-0.5414 -1.05468,-0.54334 -0.28368,-0.005 -0.24337,-0.23158 0.19531,-1.09728 0.21484,-0.42398 0.39062,-0.82812 0.39062,-0.8981 0,-0.1437 -1.98274,-1.32484 -4.25676,-2.5358 l -1.52239,-0.8107 -0.14098,0.36449 c -0.95965,2.4812 -1.81903,4.27489 -2.51737,5.25425 l -0.23437,0.32869 -1.01563,-0.33149 c -0.55859,-0.18231 -1.03755,-0.34714 -1.06434,-0.36628 -0.0268,-0.0191 0.26857,-0.62225 0.65637,-1.34024 0.74367,-1.37688 2.12672,-4.41052 2.12672,-4.66484 0,-0.0824 -0.26696,-0.28608 -0.59326,-0.45254 -0.74152,-0.3783 -6.30966,-2.27805 -7.10205,-2.4231 -0.32226,-0.059 -0.58594,-0.14308 -0.58594,-0.18687 0,-0.24173 1.29634,-1.93747 1.48113,-1.93747 0.42667,0 3.92659,1.12595 5.67723,1.82641 0.99832,0.39945 1.83301,0.65068 1.90879,0.57454 0.17764,-0.17852 0.93285,-3.92633 0.93285,-4.62941 0,-0.52458 -0.029,-0.5532 -0.66406,-0.65454 -0.36523,-0.0583 -1.08594,-0.26944 -1.60156,-0.46921 l -0.9375,-0.36322 0.46875,-0.18637 c 0.25781,-0.10249 0.92578,-0.29652 1.48437,-0.43117 0.5586,-0.13465 1.10352,-0.2673 1.21094,-0.29477 0.10742,-0.0275 0.19531,-0.23225 0.19531,-0.45506 0,-0.39262 0.0229,-0.40214 0.74219,-0.30887 1.30436,0.16912 1.44531,0.22338 1.44531,0.55636 0,0.29823 0.0852,0.31262 1.60157,0.27046 l 1.60156,-0.0445 0.33238,-0.99267 c 0.18282,-0.54597 0.37196,-0.92865 0.42032,-0.8504 0.0484,0.0782 0.13636,0.50738 0.19556,0.95361 l 0.10762,0.81134 h 0.76112 0.76112 v 1.09375 1.09375 h -0.76324 -0.76325 l -0.10266,0.82165 c -0.16644,1.3322 -0.31728,1.34196 -0.70217,0.0455 l -0.35018,-1.17961 h -1.51999 -1.51999 l -0.19534,1.44531 c -0.10744,0.79492 -0.37794,2.20193 -0.60112,3.12668 -0.22318,0.92475 -0.37724,1.70776 -0.34235,1.74001 0.0349,0.0323 0.9228,0.4881 1.97315,1.01298 1.05035,0.52488 2.37035,1.23627 2.93334,1.58085 l 1.02362,0.62652 0.1641,-0.43024 c 0.0902,-0.23663 0.33562,-1.02134 0.54525,-1.7438 1.39227,-4.79818 1.5916,-9.70172 0.59688,-14.68391 -0.21247,-1.06423 -0.36643,-1.95159 -0.34212,-1.97191 0.22437,-0.18752 2.50796,-0.72098 2.6113,-0.61001 0.17662,0.18967 0.75489,3.23199 0.94764,4.98564 0.2009,1.82776 0.19795,5.86908 -0.006,7.65625 -0.20941,1.83872 -0.79403,4.42178 -1.48529,6.5625 -0.52142,1.61479 -2.35793,5.70733 -2.55767,5.6996 -0.0502,-0.002 -0.47792,-0.24645 -0.95058,-0.54335 z m -4.92187,-18.37714 c -0.25781,-0.0558 -0.73108,-0.10983 -1.05171,-0.12 -0.66129,-0.021 -0.66448,-0.0279 -0.8312,-1.81536 -0.0561,-0.60156 -0.13468,-1.14732 -0.17461,-1.21279 -0.0645,-0.10578 -1.08948,0.40275 -2.70811,1.3436 -0.63077,0.36664 -0.67038,0.43239 0.7504,-1.24547 0.76195,-0.89981 0.79065,-0.96388 0.46932,-1.04791 -0.31978,-0.0836 -0.30181,-0.1216 0.27371,-0.57857 0.33877,-0.26899 0.63384,-0.50673 0.65572,-0.52831 0.0219,-0.0216 -0.0372,-0.25991 -0.13117,-0.5296 -0.16204,-0.46482 -0.12847,-0.53917 0.64475,-1.42816 0.44863,-0.5158 0.87142,-0.90338 0.93953,-0.86128 0.0681,0.0421 0.24035,0.42728 0.38273,0.85595 0.14238,0.42868 0.32555,0.77942 0.40703,0.77942 0.0815,0 0.5755,-0.21573 1.09783,-0.4794 1.92359,-0.97103 4.27532,-1.30807 6.2958,-0.9023 0.97555,0.19591 0.91907,0.33657 -0.20994,0.52283 -1.47194,0.24284 -5.2542,1.84809 -6.39616,2.71463 l -0.36732,0.27874 0.26288,1.70711 c 0.14459,0.93891 0.23957,1.91889 0.21108,2.17774 -0.0478,0.43442 -0.0879,0.46283 -0.52056,0.36913 z m 0.13545,-12.20491 c 0.86808,-1.93724 0.87308,-1.94341 2.26643,-2.79487 3.84501,-2.34961 7.75472,-5.54745 9.55676,-7.81668 1.33635,-1.68279 1.57337,-2.79842 0.76606,-3.60573 -0.45812,-0.45813 -0.51945,-0.47446 -1.44531,-0.38486 -0.53179,0.0515 -1.49423,0.23535 -2.13877,0.40864 -0.64453,0.17329 -1.25411,0.31673 -1.35463,0.31875 -0.19746,0.004 -0.76558,-1.52195 -0.6206,-1.66692 0.14171,-0.14171 1.37064,-0.34648 2.12367,-0.35385 0.94803,-0.009 0.64994,-0.2297 -0.72616,-0.53696 -1.42469,-0.3181 -4.48417,-0.3285 -6.37588,-0.0217 -2.67609,0.43405 -5.42441,1.25462 -10.62452,3.17218 -2.90364,1.07073 -3.48781,1.2126 -7.17993,1.74374 -0.5974,0.0859 -1.1058,0.13663 -1.12979,0.11265 -0.0595,-0.0595 1.68957,-0.79836 6.04409,-2.55331 5.98169,-2.41073 9.62543,-3.53749 13.04688,-4.03449 4.55144,-0.66114 8.70481,0.19117 11.06122,2.26988 1.24567,1.09887 1.6006,2.17406 1.19718,3.62665 -0.47989,1.72794 -3.65369,5.24225 -7.18866,7.95992 -1.751,1.34615 -5.83642,4.04648 -7.1398,4.71916 l -0.50756,0.26196 z m -43.453632,-9.0815 c -0.62188,-0.27098 -1.13165,-0.5444 -1.13281,-0.6076 -0.006,-0.3437 3.595832,-2.83439 5.792222,-4.00496 6.795,-3.62141 13.99768,-4.73454 21.78377,-3.36656 2.3744,0.41717 5.70312,1.38369 5.70312,1.65594 0,0.07 -0.0777,0.12736 -0.1726,0.12736 -0.0949,0 -0.99255,0.34488 -1.9947,0.76641 l -1.82208,0.76641 -1.70417,-0.38361 c -0.9373,-0.21098 -1.94257,-0.36251 -2.23393,-0.33672 l -0.52977,0.0469 0.79171,1.01563 0.7917,1.01562 -1.10072,0.52746 c -0.6054,0.2901 -1.11644,0.50104 -1.13564,0.46875 -1.02827,-1.72912 -2.64828,-3.57433 -3.13809,-3.57433 -0.3673,0 -2.00758,1.91652 -2.59546,3.03257 -0.58456,1.10975 -0.59764,1.11761 -2.07031,1.24322 -0.6286,0.0536 -0.8984,0.0214 -0.89832,-0.1074 2.2e-4,-0.32929 0.9411,-2.18312 1.50967,-2.97453 l 0.55465,-0.77204 -0.91002,0.10695 c -1.50855,0.17731 -5.99817,1.40899 -5.99817,1.64555 0,0.0535 0.63479,0.54523 1.41063,1.09282 0.77585,0.5476 1.44797,1.05604 1.4936,1.12987 0.0456,0.0738 -0.11455,0.13803 -0.35595,0.14266 -0.2414,0.005 -1.00046,0.0672 -1.68681,0.13912 l -1.24791,0.13069 -1.01772,-0.61431 c -0.55974,-0.33787 -1.1619,-0.65067 -1.33812,-0.69511 -0.35151,-0.0887 -1.27398,0.39516 -3.69741,1.93916 -0.83481,0.53186 -1.60825,0.96023 -1.71875,0.95191 -0.110512,-0.008 -0.709732,-0.23683 -1.331612,-0.50781 z M 133.4962,210.3819 c 0,-0.41667 0.0521,-0.46875 0.46875,-0.46875 0.41667,0 0.46875,0.0521 0.46875,0.46875 0,0.41666 -0.0521,0.46875 -0.46875,0.46875 -0.41666,0 -0.46875,-0.0521 -0.46875,-0.46875 z m 2.09126,-0.069 c -0.18341,-0.47796 0.01,-0.79038 0.48901,-0.79038 0.37293,0 0.4772,0.0749 0.51934,0.37296 0.0804,0.5688 -0.80897,0.93699 -1.00835,0.41742 z m 1.94451,-0.35231 c -0.11849,-0.49419 0.0324,-0.79624 0.45021,-0.9011 0.47565,-0.11938 0.69249,0.11966 0.63263,0.69741 -0.0324,0.31229 -0.13822,0.40013 -0.52788,0.43806 -0.36475,0.0355 -0.5044,-0.0235 -0.55496,-0.23437 z m 2.12286,-0.25999 c -0.0493,-0.12841 -0.0665,-0.39679 -0.0382,-0.5964 0.0408,-0.28766 0.14863,-0.36293 0.52017,-0.36293 0.43155,0 0.46875,0.0434 0.46875,0.54688 0,0.48071 -0.0521,0.55286 -0.43058,0.5964 -0.27323,0.0314 -0.46331,-0.0358 -0.52017,-0.18395 z m 2.12262,-0.72495 c 0,-0.63335 0.009,-0.64393 0.50782,-0.59584 0.46686,0.045 0.50781,0.0931 0.50781,0.59584 0,0.50277 -0.0409,0.55082 -0.50781,0.59583 -0.49879,0.0481 -0.50782,0.0375 -0.50782,-0.59583 z"
       id="path3" /></g></svg>
